<?xml version="1.0" encoding="iso-8859-1"?>
<!-- Uploaded to: SVG Repo, www.svgrepo.com, Generator: SVG Repo Mixer Tools -->
<!DOCTYPE svg PUBLIC "-//W3C//DTD SVG 1.1//EN" "http://www.w3.org/Graphics/SVG/1.1/DTD/svg11.dtd">
<svg fill="#000000" version="1.1" id="Capa_1" xmlns="http://www.w3.org/2000/svg" xmlns:xlink="http://www.w3.org/1999/xlink" 
	 width="800px" height="800px" viewBox="0 0 26.528 26.527"
	 xml:space="preserve">
<g>
	<g>
		<path d="M7.633,5.648c-0.066,0.21-0.134,0.419-0.174,0.639C7.413,6.56,7.388,6.843,7.388,7.128c0,2.823,2.38,5.108,5.316,5.108
			c2.935,0,5.313-2.285,5.313-5.108c0-0.564-0.117-1.097-0.292-1.604l1.08-1.431L16.87,3.439l0.379-1.899l-2.362,0.648L13.801,0
			l-2.016,2.021l-1.563-1.74L9.487,2.58L6.978,1.79l0.945,2.031L6.098,4.313L7.633,5.648z"/>
		<path d="M23.583,24.098v-0.025h-0.092V23.4h-0.877l-0.13-2.086l-0.26,0.093c-0.776,0.274-1.542,0.409-2.342,0.409
			c-0.152,0-0.294-0.019-0.438-0.026l-0.213-8.137l-3.896-0.646c0,0-0.728,2.146-2.729,2.259c-2.002,0.112-2.76-2.259-2.76-2.259
			L6.364,13.65l-0.261,8.12c-0.537-0.057-1.066-0.175-1.6-0.363l-0.262-0.092l-0.128,2.084h-0.91v0.672v0.025H0.475v2.432h1.76H9.83
			h7.975h7.079h1.168v-2.432h-2.47V24.098z M14.84,21.264c0.48-0.053,1.087,0.127,1.809,0.338c0.883,0.258,1.979,0.58,3.234,0.58
			c0.762,0,1.492-0.113,2.229-0.348l0.084,1.381h-8.625C13.594,22.725,13.758,21.382,14.84,21.264z M4.617,21.834
			c0.734,0.234,1.465,0.348,2.226,0.348h0.002c1.255,0,2.352-0.32,3.233-0.58c0.722-0.211,1.329-0.391,1.81-0.338
			c1.079,0.118,1.245,1.459,1.27,1.952H4.531L4.617,21.834z"/>
	</g>
</g>
</svg>